<?xml version="1.0" encoding="utf-8"?>
<!-- Generator: Adobe Illustrator 22.0.1, SVG Export Plug-In . SVG Version: 6.00 Build 0)  -->
<svg version="1.1" id="Layer_1" xmlns="http://www.w3.org/2000/svg" xmlns:xlink="http://www.w3.org/1999/xlink" x="0px" y="0px"
	 viewBox="-178 0 2509 2509" style="enable-background:new 0 0 2509 2509;" xml:space="preserve">
<style type="text/css">
	.st0{fill:#369648;}
	.st1{fill:#201600;}
	.st2{fill:#6cc97d;}
	.st3{fill:#FFFFFF;}
</style>
<g>
	<path class="st0" d="M1192.3,477.7l-1.9,6.6c-0.2,0.6-0.3,1-0.4,1.4l-0.4,1.2l-0.8,2.5l-0.8,2.5l-0.8,2.2l-1.5,4.4l-1.5,4.2
		l-1.5,4.1c-1,2.8-2,5.4-2.9,8c-2,5.4-3.9,10.5-5.9,15.7c-2,5.1-4,10.3-6,15.4c-8,20.3-16.3,40.3-24.8,60.2
		c-8.5,19.9-17.3,39.6-26.3,59.2c-9.1,19.6-18.4,39.1-28.1,58.5c-9.7,19.4-19.8,38.8-30.2,58c-10.4,19.2-21.4,38.4-32.7,57.5
		c-22.9,38.1-47.7,75.9-77.2,112.9l-5.6,6.9l-2.8,3.5c-0.9,1.2-1.9,2.3-2.9,3.5l-11.8,13.8c-8.1,9.2-16.4,17.9-24.7,26.3
		c-16.7,16.9-33.8,32.3-50.9,46.8c-34.3,28.9-68.9,54.1-102.5,77.9c-33.6,23.8-66.5,46.1-97,68.6c-15.3,11.3-29.9,22.6-43.6,34
		c-13.7,11.5-26.4,23.1-37.6,34.9c-11.2,11.8-20.8,23.7-28.2,35.5c-3.7,5.9-7,11.8-9.7,17.7c-2.7,5.9-5.2,12.6-7.3,19.7
		c-4.2,14.3-7,30.6-8.7,48c-1.6,17.4-2.2,35.9-2,54.9c0.2,19,1,38.7,2.1,58.7c1.1,20,2.5,40.4,3.7,61.2c2.4,41.5,4.7,84.4,2.3,129.1
		c-1.2,22.3-3.6,45.1-8.3,68c-2.3,11.5-5.2,23-8.8,34.4c-1.8,5.7-3.8,11.4-6,17.1c-1.1,2.8-2.2,5.7-3.4,8.4l-1.8,4.2
		c-0.3,0.7-0.6,1.4-1,2.2l-1.1,2.2l-2.1,4.4l-1.1,2.2c-0.4,0.7-0.7,1.3-1.1,2l-4.4,7.9c-1.5,2.6-3,5-4.5,7.4l-2.2,3.7l-2.3,3.5
		l-4.6,7l-4.7,6.7c-3.1,4.5-6.3,8.8-9.4,13.2c-12.7,17.2-25.7,33.6-39,49.5c-26.5,31.9-53.9,62.4-81.7,92.4
		c-13.9,15-27.9,29.8-42,44.6c-7.1,7.4-14.1,14.7-21.2,22c-7.1,7.3-14.2,14.5-21.5,21.9c-7.9,7.9-20.6,7.8-28.3-0.3
		c-7.2-7.5-7.6-19.3-1.2-27.3l0.1-0.1c6.2-7.8,12.4-15.8,18.6-23.8c6.2-8,12.3-16,18.4-24.1c12.2-16.1,24.3-32.3,36.2-48.5
		c23.8-32.5,47-65.4,68.8-98.7c10.9-16.6,21.4-33.4,30.9-50.2c2.3-4.2,4.8-8.4,6.9-12.5l3.3-6.2l3.1-6.2l1.5-3.1l1.4-3
		c0.9-2,1.9-4,2.7-6l2.3-5.8c0.2-0.5,0.4-1,0.6-1.4l0.4-1.3l0.9-2.6l0.5-1.3c0.2-0.4,0.3-0.9,0.4-1.4l0.9-3c0.6-2,1.1-4,1.6-6
		c1-4,1.9-8.1,2.7-12.3c1.6-8.3,2.7-16.9,3.5-25.6c1.5-17.5,1.4-35.7,0.3-54.3c-2.3-37.2-8.5-75.9-15.4-115.6
		c-3.5-19.9-7.2-40.1-10.7-60.7c-3.5-20.6-6.8-41.7-9.5-63.5c-2.7-21.8-4.7-44.2-5.2-67.7c-0.5-23.5,0.5-48.1,4.8-73.9
		c2.1-12.9,5.1-25.9,9.2-39.3c4.1-13.4,9.2-26.2,14.9-38.3c11.4-24.3,25.2-45.9,39.7-65.4c14.6-19.6,29.9-37.2,45.4-53.6
		c15.5-16.5,31.3-31.8,46.9-46.5c31.3-29.3,62.3-56.1,91.8-82.6c29.4-26.4,57.3-52.4,82-78.8c12.3-13.2,23.8-26.4,34.1-39.7
		c5.2-6.6,10.1-13.3,14.7-19.9l6.8-10.3c0.6-0.9,1.1-1.7,1.7-2.6l1.7-2.7l3.4-5.4c17.9-28.9,34.5-61.4,49.8-95.2
		c7.6-17,15-34.2,22.1-51.8c7-17.6,13.9-35.3,20.4-53.3c6.5-18,12.8-36.2,18.9-54.4c6-18.3,11.8-36.7,17.3-55.2
		c5.5-18.5,10.8-37,15.7-55.4c1.3-4.6,2.4-9.2,3.6-13.7c1.1-4.5,2.3-9.1,3.4-13.5c0.5-2.2,1.1-4.5,1.6-6.6l0.7-3.2
		c0.3-1.1,0.5-2.2,0.7-3.1l0.6-3l0.3-1.5l0.2-1.2l0.2-1.2l0.1-0.6c0-0.2,0.1-0.5,0.1-0.5c0-0.3,0-0.6,0-0.9
		c3.5-75.2,65.7-133.4,139.1-130c73.4,3.4,130,67.2,126.6,142.4c-0.5,11.2-2.3,22-5.3,32.2L1192.3,477.7z"/>
	<path class="st1" d="M235.4,2143.9c-0.1,0-0.3,0-0.4,0c-10.8-0.1-20.8-4.5-28.3-12.3c-14-14.6-15-37.6-2.5-53.5l0.2-0.2
		c5.5-7,11.5-14.6,18.3-23.5c6.1-7.9,12.3-16,18.3-23.9c12.5-16.5,24.6-32.7,36-48.3c27.3-37.4,49-68.5,68.2-97.9
		c12-18.4,21.9-34.5,30.3-49.1c0.6-1.1,1.2-2.2,1.9-3.3c1.7-3,3.3-5.9,4.8-8.6l0.1-0.2l3.2-6l4.4-8.7l1.2-2.7
		c0.3-0.7,0.7-1.6,1.1-2.4c0.5-1,1-2,1.4-3l2.2-5.5c0.1-0.2,0.2-0.5,0.3-0.7l1.9-5.5l1-3.3c0.3-1,0.6-2.2,1-3.5l0.4-1.5
		c0.9-3.4,1.7-7,2.5-11c1.4-7.4,2.5-15.3,3.2-23.5c1.3-15.5,1.4-32.3,0.2-51.4c-2.3-37.3-8.7-76.4-15.2-113.3
		c-1.3-7.2-2.5-14.4-3.8-21.6c-2.3-12.7-4.6-25.9-6.8-39.1c-4.3-25.4-7.3-45.3-9.6-64.4c-3.2-26-4.9-48.2-5.3-69.8
		c-0.6-28.1,1.1-53.5,5-77.6c2.5-14.8,5.7-28.5,9.8-41.9c4.2-13.6,9.5-27.4,15.9-40.9c10.8-23.1,24.5-45.6,41.8-68.9
		c13.4-18,28.7-36.1,46.9-55.4c14.1-15,29.3-30,47.8-47.3c21.5-20.1,42.9-39.1,63.5-57.4c9.9-8.8,19.2-17.1,28.6-25.5
		c25.3-22.7,54.6-49.6,80.8-77.6c12.9-13.9,23.7-26.4,33-38.3c5.1-6.5,9.7-12.9,13.9-18.9l6.7-10.1c0.2-0.3,0.4-0.7,0.7-1
		c0.2-0.4,0.5-0.7,0.7-1.1l5-8c16-25.9,31.9-56.3,48.5-92.9c8.2-18.3,15.3-35,21.7-50.9c7.5-18.8,14.1-36.1,20.2-52.7
		c6.4-17.8,12.7-35.9,18.7-53.9c5.9-17.8,11.7-36.2,17.2-54.6c5.6-18.7,10.8-37.1,15.6-54.8l0-0.1c0.8-2.8,1.5-5.7,2.2-8.5
		c0.4-1.7,0.9-3.3,1.3-5c0.4-1.4,0.7-2.8,1.1-4.2c0.8-3.1,1.5-6,2.2-8.9l0.6-2.3c0.3-1.4,0.7-2.8,1-4.1l0.8-3.5
		c0.2-0.9,0.4-1.7,0.6-2.5l1.2-5.9c2-41.6,19.6-79.9,49.6-108c30.2-28.3,69.4-42.8,110.3-40.9c84.2,4,149.6,77.2,145.6,163.3
		c-0.6,12.5-2.6,24.9-6,36.8l0,0.1l-8,27.2c-0.2,0.7-0.4,1.2-0.5,1.7l-2.9,8.9l-3.1,8.8l-1.5,4.2c-0.7,2-1.4,3.9-2.1,5.9l-0.9,2.3
		c-1.4,3.9-2.9,7.8-4.3,11.5l-1.7,4.6c-0.7,1.7-1.3,3.5-2,5.2c-1.3,3.5-2.7,6.9-4,10.3c-7.9,19.9-16,39.8-25,60.7
		c-8.6,20.1-17.6,40.2-26.6,59.7c-9.2,19.8-18.7,39.7-28.4,59.1c-9.4,18.8-19.3,38-30.5,58.6c-10.1,18.6-20.9,37.6-33.1,58.2
		c-27.3,45.3-52.3,81.9-78.7,115.1l-8.4,10.5c-0.8,0.9-1.5,1.8-2.3,2.7l-13,15.2c-8,9.1-16.4,17.9-25.5,27.2
		c-15.4,15.6-32.5,31.3-52.2,48c-35.5,30-70.9,55.6-103.9,78.9c-10.9,7.7-21.8,15.3-32.4,22.7c-22.5,15.7-43.8,30.6-64.2,45.7
		c-16.5,12.2-30.4,23-42.6,33.3c-14.1,11.9-25.9,22.7-35.9,33.3c-10.6,11.2-19.3,22.1-25.8,32.4c-3.3,5.2-6.1,10.3-8.4,15.3
		c-2.3,5-4.4,10.8-6.3,17c-3.7,12.5-6.4,27.3-7.9,44.2c-1.5,15.4-2.1,32.7-1.9,52.9c0.1,16.5,0.8,34.8,2.1,57.7
		c0.7,12.6,1.5,25.2,2.3,38.5c0.5,7.5,0.9,15,1.4,22.6c2.6,43.7,4.7,86.6,2.3,131.4c-1.4,26-4.2,49.2-8.6,70.9
		c-2.6,12.7-5.7,24.9-9.4,36.5c-2.1,6.5-4.1,12.5-6.4,18.3l-0.6,1.5c-1,2.5-2,5.1-3.2,7.8l-1.7,4c-0.5,1.1-1,2.2-1.4,3.1l-4.4,9
		c-0.4,0.7-0.7,1.4-1.1,2.1l-5,9c-1.1,1.9-2.2,3.7-3.3,5.4c-0.5,0.8-0.9,1.5-1.4,2.3l-0.1,0.1l-2.6,4.2l-7.2,11l-4.6,6.7
		c-2.5,3.7-5,7.1-7.4,10.5c-0.8,1-1.5,2.1-2.3,3.1l-0.1,0.1c-11.4,15.6-24.1,31.6-39.7,50.5c-23.6,28.4-49.8,58-82.4,93.2
		c-13.4,14.5-27.6,29.5-42.2,44.8c-7.1,7.4-14.3,14.8-21.4,22.1c-8.2,8.4-15.1,15.4-21.7,22C256,2139.8,246,2143.9,235.4,2143.9z
		 M235.5,2102.9c-0.1,0.2-0.2,0.6-0.1,0.8c6.5-6.5,13.2-13.3,21.2-21.5c7-7.2,14.1-14.6,21.1-21.9c14.5-15.1,28.5-30,41.8-44.3
		c32.1-34.7,57.8-63.8,81-91.6c15.1-18.2,27.3-33.6,38.2-48.5c0.8-1.1,1.5-2.1,2.3-3.2c2.4-3.2,4.6-6.3,6.8-9.5l0.1-0.1l4.5-6.5
		l6.6-10l2.1-3.4c0.5-0.8,1-1.6,1.5-2.5c0.9-1.5,1.8-3,2.7-4.5l4.2-7.7c0.1-0.3,0.3-0.5,0.4-0.8c0.1-0.2,0.2-0.3,0.3-0.5l4.1-8.5
		c0.4-0.7,0.5-1,0.6-1.2l0.1-0.2l1.9-4.4c0.9-1.9,1.7-4,2.5-6.2l0.6-1.4c1.9-4.9,3.7-10.1,5.5-15.8c3.2-10.2,6-21.1,8.3-32.4
		c4-19.8,6.6-41.1,7.9-65.2c2.2-42.7,0.2-84.4-2.3-126.8c-0.5-7.5-0.9-15-1.4-22.5c-0.8-12.8-1.6-26-2.3-38.8
		c-1.3-23.6-2-42.5-2.1-59.6c-0.2-21.6,0.5-40.2,2.1-57c1.8-19.4,5-36.8,9.4-51.7c2.4-8.1,5.2-15.6,8.3-22.4c3-6.6,6.7-13.4,10.9-20
		c7.9-12.5,18.2-25.5,30.6-38.6c11.1-11.7,23.9-23.6,39.2-36.4c12.8-10.8,27.4-22.1,44.5-34.8c20.9-15.4,42.3-30.4,65.1-46.3
		c10.5-7.3,21.4-14.9,32.2-22.6c32.2-22.8,66.8-47.9,101.1-76.8c18.7-15.9,35-30.8,49.6-45.6c8.6-8.7,16.4-17,23.9-25.4l11.6-13.6
		c0.4-0.4,0.7-0.8,1.1-1.3c0.5-0.6,1.1-1.2,1.6-1.9l8.3-10.3c25.3-31.8,49.3-67,75.6-110.7c11.9-20,22.5-38.6,32.3-56.7
		c10.9-20.2,20.7-39,29.9-57.4c9.5-19.1,18.9-38.6,27.9-58c8.8-19.1,17.6-38.9,26.1-58.7c8.8-20.5,16.8-40,24.6-59.7
		c1.3-3.3,2.6-6.7,3.9-10c0.7-1.7,1.3-3.5,2-5.2l1.7-4.4c1.4-3.8,2.8-7.3,4.1-11l0.9-2.4c0.7-1.8,1.3-3.6,2-5.4l2.9-8.2l4.2-12.5
		c0.1-0.2,0.1-0.3,0.2-0.6l8-27.3c2.6-8.9,4.1-18.2,4.5-27.6c2.9-64.1-45.3-118.6-107.5-121.5c-30-1.4-58.9,9.3-81.2,30.1
		c-22.4,20.9-35.5,49.5-37,80.6c0,1.4-0.1,2.8-0.4,4.3l-1,5l-0.6,3c-0.2,1-0.5,2.2-0.8,3.4l-0.8,3.3c-0.3,1.5-0.7,3.1-1.1,4.7
		l-0.5,2.1c-0.7,3.1-1.6,6.3-2.4,9.4c-0.4,1.4-0.7,2.8-1.1,4.3l-0.1,0.2c-0.4,1.6-0.9,3.3-1.3,4.9c-0.8,3-1.5,5.9-2.4,8.9
		c-4.8,18-10.2,36.8-15.9,55.9c-5.6,18.8-11.5,37.5-17.5,55.7c-6.1,18.4-12.5,36.9-19,55c-6.2,17.1-12.9,34.7-20.6,54
		c-6.6,16.5-13.9,33.7-22.4,52.5c-17.3,38.2-34,70.1-51,97.5l-5,8.1c-0.5,0.8-1,1.6-1.5,2.3l-7.6,11.4c-4.6,6.7-9.8,13.7-15.3,20.8
		c-10,12.8-21.5,26.2-35.3,41c-27.3,29.1-57.4,56.8-83.3,80c-9.4,8.5-19.3,17.2-28.8,25.6c-20.5,18.2-41.6,36.9-62.7,56.7
		c-17.9,16.7-32.5,31.2-46,45.6c-17.3,18.4-31.3,34.9-43.9,51.9c-15.6,21.1-28,41.3-37.6,62c-5.5,11.8-10.2,23.8-13.9,35.7
		c-3.6,11.7-6.4,23.7-8.6,36.6c-3.6,21.6-5,44.6-4.5,70.2c0.4,20.2,2,41.1,5,65.7c2.3,18.5,5.2,37.8,9.4,62.6
		c2.2,13.1,4.5,26.2,6.8,38.8c1.3,7.3,2.6,14.5,3.8,21.7c6.6,38,13.3,78.4,15.7,117.8c1.3,21.1,1.2,39.8-0.3,57.2
		c-0.8,9.6-2.1,19-3.7,27.7c-0.9,4.9-1.9,9.3-3,13.5l-0.4,1.5c-0.4,1.6-0.9,3.4-1.5,5.3l-0.8,2.7c-0.3,1-0.6,1.9-0.8,2.6l-1.7,5.1
		c-0.3,0.9-0.6,1.6-0.8,2.1l-2.7,6.5c-0.6,1.4-1.2,2.8-1.9,4.2c-0.3,0.7-0.7,1.4-1,2.1l-1.7,3.8l-4.9,9.7l-3.3,6.2
		c-1.7,3.3-3.6,6.6-5.4,9.7c-0.6,1.1-1.2,2.1-1.8,3.2l-0.1,0.1c-8.7,15.3-19.1,32-31.6,51.2c-19.6,30-41.7,61.7-69.4,99.6
		c-11.5,15.7-23.8,32.1-36.4,48.8c-6.1,8-12.3,16.2-18.5,24.2c-7,9-13.1,16.9-18.7,24L235.5,2102.9z M918,413.1c0,0.4,0,0.8,0,1.3
		l0-0.7C918,413.5,918,413.3,918,413.1L918,413.1z M958,412.7c0,0.1,0,0.2,0,0.3C958,412.9,958,412.8,958,412.7L958,412.7z
		 M918,412.6L918,412.6C918,412.6,918,412.6,918,412.6C918,412.6,918,412.6,918,412.6z"/>
</g>
<g>
	<path class="st0" d="M1794.8,878.8l-2.4,5.2l-2.1,4.3l-1,2.1l-1,1.9l-1.9,3.8l-3.7,7.3l-3.7,7.1c-4.9,9.4-9.8,18.6-14.8,27.8
		c-9.9,18.3-19.9,36.3-30,54.2c-20.3,35.8-41.2,71.1-62.9,106.2c-10.9,17.5-21.9,35-33.2,52.4c-11.3,17.4-22.8,34.7-34.7,51.9
		c-11.9,17.2-24,34.4-36.6,51.4c-3.1,4.3-6.3,8.5-9.6,12.8c-3.2,4.2-6.4,8.5-9.7,12.7l-9.9,12.7l-10.2,12.7
		c-3.4,4.2-6.9,8.4-10.4,12.6l-5.3,6.3c-1.8,2.1-3.6,4.2-5.4,6.3l-5.5,6.3c-1.8,2.1-3.6,4.2-5.5,6.2l-11.3,12.3
		c-15.2,16.1-30.6,31.4-46.1,46c-15.5,14.7-31.2,28.6-46.9,42c-15.6,13.5-31.3,26.5-46.8,39.2c-31,25.4-61.7,49.6-90.8,73.6
		c-14.6,12-28.7,24.1-42.3,36.2c-13.6,12.1-26.5,24.3-38.6,36.7c-12.1,12.4-23.2,24.9-33.1,37.6l-1.9,2.4c-0.6,0.8-1.3,1.6-1.8,2.4
		l-3.4,4.8l-1.7,2.4l-0.9,1.2l-0.8,1.2l-3.2,4.8c-2.2,3.2-4,6.4-6,9.6l-1.5,2.4c-0.5,0.8-0.9,1.7-1.4,2.5l-2.7,5.1
		c-14.5,27.4-25,60.7-33.3,96.6c-8.3,36-14.5,74.5-21.4,114.2c-6.9,39.7-14.4,80.8-26,122.2c-5.8,20.7-12.7,41.4-21.2,61.8
		c-4.2,10.2-8.9,20.3-14,30.2l-1.9,3.7l-2,3.7l-4.1,7.3c-0.7,1.2-1.3,2.4-2.1,3.7l-2.3,3.8c-1.5,2.5-3.1,5.1-4.6,7.3
		c-12.2,18.7-24.7,34.8-37.5,50.7c-12.7,15.9-25.7,31.2-38.7,46.4c-26.1,30.3-52.7,59.7-79.6,88.8c-13.4,14.5-26.9,29-40.5,43.4
		c-13.6,14.4-27.2,28.6-41,42.9c-7.8,8.1-20.5,8.1-28.3,0.1c-7.3-7.4-7.8-19.1-1.7-27.2l0.1-0.1c11.8-15.5,23.7-31.3,35.4-47.1
		c11.7-15.8,23.3-31.6,34.9-47.5c23-31.8,45.7-63.8,67.5-96.1c10.9-16.1,21.5-32.4,31.7-48.6c2.6-4.1,5-8.1,7.5-12.2
		c2.5-4.1,4.8-8.1,7.2-12.2l3.4-6l1.7-3c0.6-1,1.1-2,1.6-3l3.2-6l2.9-5.8c1-2,1.8-3.8,2.6-5.6l1.2-2.7c0.4-0.9,0.8-2,1.2-3l2.4-6
		l1.2-3l1.1-3.1c3-8.1,5.7-16.4,8.1-24.9c4.8-16.9,8.5-34.5,11.3-52.6c5.7-36.1,8.3-74,10.4-113.2c2.2-39.2,3.8-79.8,8.5-122.3
		c2.3-21.2,5.5-42.9,10.1-65.1c4.6-22.1,10.8-44.7,19.3-67.4l3.3-8.5c0.6-1.4,1.1-2.8,1.7-4.2l1.9-4.2c2.5-5.6,4.9-11.3,7.7-16.7
		l4.1-8.1l1-2l1.1-2l2.1-3.9l4.3-7.8c0.7-1.3,1.5-2.6,2.2-3.8l2.3-3.8c12-20.2,25-38.8,38.5-56.4c13.4-17.6,27.3-34.1,41.3-50
		c14-15.8,28.1-31,42.1-45.8c28.1-29.6,56-57.6,82.7-85.4c13.4-13.9,26.3-27.6,39-41.4c12.6-13.8,24.8-27.5,36.3-41.4
		c11.5-13.8,22.5-27.7,32.7-41.6l7.5-10.5c1.3-1.7,2.5-3.5,3.7-5.3l3.6-5.3c1.2-1.8,2.4-3.5,3.6-5.4l3.6-5.5
		c2.4-3.7,4.8-7.3,7.2-11.1l7.1-11.3l7-11.6c2.3-3.8,4.6-7.8,6.9-11.7c2.3-3.9,4.6-7.8,6.8-11.9c9.1-15.9,17.9-32.2,26.6-48.7
		c8.7-16.5,17.2-33.3,25.5-50.1c8.3-16.9,16.5-34,24.5-51.2c16-34.4,31.5-69.3,46.3-104.5c7.4-17.6,14.6-35.2,21.6-52.7
		c3.5-8.8,6.9-17.5,10.2-26.1l2.4-6.4l1.2-3.1l1.1-3.1l1.1-3l0.5-1.5l0.5-1.3l0.5-1.3l0.2-0.7c0.1-0.2,0.2-0.5,0.2-0.6l0.4-1.6
		c19.6-72,92.4-114.1,162.6-94c70.1,20,111.1,94.6,91.5,166.6c-2,7.2-4.4,14.1-7.4,20.6L1794.8,878.8z"/>
	<path class="st1" d="M729.7,2458.1c-10.7,0-20.8-4.2-28.4-11.9c-14.1-14.4-15.5-37.3-3.3-53.4l0.1-0.2c11-14.5,22.9-30.2,35.1-46.8
		c12-16.1,23.7-32.1,34.7-47.3c26.2-36.2,47.5-66.6,67.1-95.6c12-17.9,22.3-33.6,31.3-48l0.1-0.1c1.6-2.5,3.1-5,4.7-7.7
		c0.9-1.4,1.7-2.8,2.6-4.3c1.5-2.4,2.9-4.9,4.4-7.5c0.8-1.4,1.7-2.8,2.5-4.2l5-8.9c0.2-0.4,0.5-0.9,0.8-1.4l3.7-6.9l2.9-5.9
		c0.5-1,1-2.1,1.6-3.4l1.8-3.9c0.2-0.3,0.3-0.7,0.4-1.1c0.2-0.4,0.3-0.8,0.5-1.3l3.5-8.6l1-2.8c2.8-7.6,5.4-15.5,7.6-23.4
		c4.4-15.4,7.9-31.8,10.8-50.3c5.8-36.6,8.2-75,10.2-111.2c0.4-6.8,0.7-13.6,1.1-20.4c1.8-33.1,3.6-67.3,7.5-102.9
		c2.7-24.5,6.1-46.4,10.4-67c5.3-25.4,11.9-48.4,20.2-70.3l0.1-0.2l3.4-8.7c0.2-0.4,0.3-0.8,0.5-1.2c0.4-1.1,0.9-2.3,1.5-3.6
		l3.1-7.1c2.1-4.8,4.3-9.8,6.9-14.8l5.4-10.7l7.5-13.7c0.9-1.6,1.7-3,2.4-4.2l2.4-4.1c11.3-19,24.3-38.1,39.7-58.2
		c12.5-16.4,26.3-33.1,42.2-51.1c12.6-14.2,26.1-29,42.6-46.4c16.4-17.3,32.8-34.1,48.7-50.3c11.8-12.1,23-23.5,34.1-35.1
		c13.8-14.3,26.5-27.8,38.6-41.1c13.9-15.2,25.6-28.5,35.7-40.7c11.6-13.9,22.4-27.6,31.9-40.6l7.5-10.5c1-1.3,2-2.9,3.1-4.5
		l3.8-5.6c0.4-0.6,0.9-1.3,1.4-2c0.7-1,1.4-2,2.1-3l3.6-5.5c0.7-1,1.4-2.1,2.1-3.2c1.7-2.6,3.3-5,4.8-7.5l0.1-0.1l7-11.2l7-11.6
		c1.4-2.3,2.8-4.7,4.3-7.3c0.8-1.4,1.6-2.7,2.4-4.1l0.7-1.2c2.1-3.5,4-6.8,5.9-10.3l0.1-0.2c9.6-16.6,18.7-33.6,26.3-48.1
		c9.4-17.7,18.5-35.9,25.3-49.7c7.5-15.2,15.5-31.8,24.3-50.8c16-34.3,31.4-69.2,46-103.7c7.6-17.9,14.8-35.6,21.5-52.4
		c3.9-9.8,7.2-18.3,10.1-25.8l7.2-19.6l0.3-1.2c11.1-40.6,37-74.1,73.1-94.4c35.1-19.8,75.7-24.6,114.2-13.6
		c80.5,23,127.7,108.7,105.3,191.1c-2.2,8.1-5.1,16-8.5,23.6l-0.1,0.2l-7,15.2l-4.2,8.5l-2,4l-3.8,7.4l-3.7,7.1
		c-4.5,8.6-9.2,17.5-14.9,28.1c-9.7,17.9-19.6,35.7-30.2,54.5c-20.3,35.7-41.5,71.7-63.3,106.8c-12.1,19.6-23.1,36.8-33.4,52.8
		c-9.4,14.4-21.8,33.3-35,52.4c-10.6,15.3-23.2,33.3-37,51.9c-3,4.1-6.1,8.2-9.1,12.2l-0.6,0.8c-1,1.4-2,2.7-3,4
		c-2.2,2.9-4.5,5.9-6.9,9l-10.1,12.9l-10.2,12.6c-2.6,3.3-5.4,6.6-8,9.7c-0.9,1.1-1.8,2.1-2.7,3.2l-5.3,6.3c-1.3,1.5-2.6,3-3.8,4.5
		c-0.6,0.7-1.2,1.4-1.8,2.1l-5.6,6.4c-1.8,2.1-3.7,4.3-5.8,6.5l-11.4,12.5c-14.6,15.6-30,30.9-47,46.9
		c-14.1,13.3-29.2,26.9-47.5,42.6c-15,12.9-30.5,25.8-47.2,39.5c-13.3,10.9-26.7,21.7-39.6,32.1c-17.7,14.3-34.5,27.8-51,41.5
		c-16.3,13.5-29.6,24.9-41.8,35.7c-14.2,12.7-26.5,24.4-37.6,35.7c-12.3,12.6-22.7,24.4-31.6,35.9l-2.2,2.7
		c-0.3,0.4-0.7,0.9-0.9,1.1l-0.3,0.4l-6.4,8.9l-3.5,5.3c-1.2,1.7-2.3,3.6-3.6,5.7c-0.6,1-1.2,2-1.8,2.9l-1.4,2.3
		c-0.1,0.2-0.2,0.3-0.3,0.5c-0.2,0.4-0.4,0.8-0.6,1.2l-2.6,4.9c-12.4,23.5-22.6,53.5-31.4,91.7c-6.9,29.9-12.3,61.4-18,94.8
		c-1,6.1-2.1,12.2-3.1,18.3c-6.9,39.7-14.6,82.1-26.5,124.2c-6.6,23.4-13.8,44.3-22,64.1c-4.5,10.7-9.4,21.4-14.6,31.6l-2.2,4.3
		l-6.2,11.2c-0.2,0.4-0.4,0.7-0.6,1.1c-0.5,1-1.1,2-1.7,3l-3,4.9c-1.4,2.3-2.9,4.7-4.4,7c-13.2,20.2-26.8,37.5-38.5,52.1
		c-11.6,14.5-24.1,29.4-39.2,46.9c-23.6,27.3-49,55.7-80,89.3c-13,14.1-26.7,28.7-40.7,43.5c-14.6,15.5-28.1,29.5-41.2,43.1
		c-7.6,7.8-17.7,12.1-28.5,12.2C729.8,2458.1,729.7,2458.1,729.7,2458.1z M729.8,2417.1c-0.1,0.2-0.2,0.6-0.1,0.8
		c13-13.4,26.2-27.3,40.7-42.5c13.9-14.7,27.5-29.2,40.4-43.2c30.7-33.2,55.8-61.3,79.1-88.3c14.8-17.2,26.9-31.7,38.3-45.8
		c11.1-13.9,24-30.4,36.3-49.1l0.2-0.3c1-1.5,2.2-3.4,3.4-5.5l2.8-4.7c0.4-0.6,0.7-1.2,1-1.8c0.2-0.4,0.5-0.9,0.7-1.3l5.9-10.6
		l1.8-3.5c4.8-9.3,9.2-19,13.3-28.8c7.6-18.3,14.3-37.8,20.4-59.6c11.3-40.3,18.6-79.9,25.6-120.2c1.1-6.1,2.1-12.2,3.1-18.2
		c5.8-34,11.3-66.1,18.5-97c9.6-41.7,21.1-74.9,35.1-101.4l0.1-0.2l2.8-5.3c0.1-0.2,0.2-0.4,0.3-0.5c0.4-0.7,0.9-1.7,1.6-2.8
		l1.4-2.3c0.5-0.9,1.1-1.7,1.6-2.6c1.4-2.4,3-5.1,5-7.9l4.4-6.6l5.9-8.1c0.8-1.2,1.6-2.2,2.3-3l2-2.5c9.9-12.7,21.2-25.6,34.5-39.3
		c11.7-12,24.7-24.3,39.6-37.7c12.6-11.2,26.2-22.8,42.9-36.7c16.7-13.9,33.6-27.4,51.4-41.8c12.9-10.4,26.2-21.1,39.4-31.9
		c16.5-13.5,31.7-26.2,46.4-38.8c17.8-15.3,32.5-28.5,46.2-41.4c16.4-15.4,31.2-30.2,45.2-45.1l11.3-12.3c1.7-1.8,3.3-3.7,5-5.7
		l5.6-6.4c0.6-0.7,1.2-1.4,1.9-2.2c1.1-1.3,2.2-2.6,3.3-3.9l5.3-6.3c0.9-1,1.8-2.1,2.7-3.2c2.6-3.1,5.1-6,7.4-9l0.1-0.1l10.1-12.5
		l9.9-12.7c2.1-2.7,4.2-5.4,6.4-8.3c1-1.4,2.1-2.8,3.1-4.1l0.5-0.7c2.9-3.9,5.9-7.8,8.8-11.7l0.1-0.2c13.5-18.1,25.9-35.8,36.2-50.8
		c12.9-18.7,25.2-37.3,34.4-51.5c10.2-15.7,21-32.7,32.9-52c21.4-34.7,42.5-70.2,62.5-105.5c10.5-18.6,20.3-36.2,29.9-53.8
		c5.6-10.4,10.3-19.1,14.6-27.5l3.6-7l7.4-14.7l2-4l6.7-14.6c2.5-5.6,4.7-11.6,6.3-17.6c16.7-61.3-18.1-125.1-77.7-142.1
		c-28.2-8.1-57.9-4.5-83.6,10c-26.7,15-45.9,39.9-54.2,70.1l-0.4,1.4c-0.2,0.9-0.5,1.6-0.6,2l-1.7,5l-3.5,9.5l-2.4,6.5
		c-3,7.8-6.3,16.4-10.3,26.4c-6.8,17-14.1,34.9-21.8,53.1c-14.7,35-30.4,70.3-46.6,105.1c-9,19.3-17.1,36.1-24.7,51.6
		c-7,14.1-16.2,32.5-25.8,50.7c-7.8,14.7-17.1,32-26.9,49.2c-2.1,3.7-4.2,7.4-6.3,10.9l-0.7,1.2c-0.8,1.3-1.5,2.6-2.3,3.9
		c-1.5,2.6-3.1,5.4-4.8,8.1l-7.1,11.8l-7.1,11.3c-1.8,2.9-3.6,5.7-5.3,8.3c-0.7,1-1.3,2.1-2,3.1l-3.6,5.6c-0.9,1.3-1.7,2.6-2.6,3.8
		c-0.4,0.6-0.8,1.2-1.2,1.8l-3.8,5.6c-1.2,1.8-2.5,3.7-3.9,5.6l-7.6,10.6c-10.1,13.7-21.3,28-33.5,42.6
		c-10.5,12.6-22.6,26.4-36.9,42c-12.4,13.6-25.3,27.2-39.3,41.8c-11.3,11.7-23,23.7-34.3,35.3c-15.8,16.2-32.1,32.9-48.3,49.9
		c-16.2,17-29.4,31.4-41.7,45.3c-15.2,17.3-28.4,33.3-40.4,48.9c-14.5,18.9-26.6,36.7-37.2,54.4l-2.5,4.1c-0.6,1-1.1,1.9-1.6,2.7
		l-0.1,0.2l-7.3,13.3l-5,10c-2,3.9-3.9,8.2-5.9,12.7l-3.1,7.1c-0.2,0.5-0.5,1.2-0.8,1.9c-0.2,0.5-0.4,1.1-0.6,1.6l-3.2,8.3
		c-7.5,19.9-13.5,41-18.4,64.3c-4,19.3-7.2,39.9-9.8,63.2c-3.8,34.5-5.6,68.2-7.3,100.7c-0.4,6.9-0.7,13.7-1.1,20.5
		c-2,37.2-4.6,76.8-10.6,115.3c-3.2,20.1-7.1,38-11.8,54.9c-2.5,8.9-5.4,17.7-8.5,26.3l-1.4,3.8l-3.7,9.1c-0.1,0.3-0.2,0.6-0.4,0.9
		c-0.4,0.9-0.7,1.8-1.1,2.6l-1.8,4c-0.7,1.6-1.5,3.4-2.6,5.4l-3.1,6.2l-3.8,7c-0.4,0.8-0.8,1.5-1.2,2.3l-5.4,9.5
		c-0.8,1.4-1.7,2.8-2.5,4.2c-1.5,2.6-3.1,5.4-4.8,8.1c-0.9,1.4-1.7,2.8-2.5,4.1c-1.6,2.7-3.3,5.5-5.1,8.3
		c-9.3,14.8-19.7,30.9-32,49.1c-19.8,29.4-41.4,60.1-67.9,96.7c-11.2,15.4-22.9,31.4-35,47.7c-12.4,16.7-24.3,32.6-35.5,47.3
		L729.8,2417.1z"/>
</g>
<g>
	<path class="st2" d="M1909.9,1016.2c-1.8,1.9-3.6,3.7-5.4,5.5c-1.3,1.2-2.5,2.4-3.8,3.6l-0.9,0.8l-0.7,0.6l-1.5,1.3l-1.5,1.3
		l-1.3,1l-2.4,2l-2.2,1.7l-2.1,1.6l-1.9,1.5c-5,3.9-9.4,7-13.6,10.1l-23.9,17c-15.3,10.9-30,21.6-44.5,32.4
		c-28.8,21.7-56.3,44-81.9,67.2c-25.6,23.2-49.3,47.4-69.9,72.3c-20.6,24.9-37.8,50.5-49.8,75.5l-1.1,2.3l-1.1,2.3
		c-0.7,1.6-1.4,3.1-2.1,4.7c-0.7,1.6-1.4,3.2-2.1,4.9l-2,4.9c-2.5,6.5-4.8,13-6.7,19.5c-3.9,13.1-6.6,26.5-8.2,40.8
		c-1.6,14.3-1.9,29.8-1.3,46.8c0.6,17,2.3,35.6,4,56c1.8,20.3,3.6,42.4,4.1,66c0.5,23.5-0.4,48.4-3.9,73.2
		c-3.4,24.9-9.4,49.6-17.4,72.9c-4,11.7-8.5,23-13.4,34c-4.9,11-10.2,21.5-15.8,31.8l-4.2,7.6l-4.4,7.5l-4.9,8.4
		c-1.8,3-3.6,5.8-5.4,8.6c-7.4,11.2-15.2,21.1-23.1,30.4c-15.8,18.4-32.2,33.9-48.6,48.1c-8.2,7.1-16.4,13.9-24.7,20.5
		c-8.2,6.6-16.5,12.9-24.8,19c-8.3,6.2-16.5,12.1-24.7,18c-8.2,5.9-16.5,11.6-24.7,17.3c-32.9,22.7-65.5,44.1-97.4,65.7
		c-31.8,21.6-63,43.3-92.4,66.2c-14.7,11.5-28.9,23.2-42.4,35.3c-13.5,12.1-26.2,24.7-37.7,37.8c-5.7,6.6-11.2,13.2-16.2,20
		l-3.7,5.1c-1.2,1.7-2.3,3.4-3.5,5.2c-1.2,1.7-2.2,3.5-3.4,5.2l-3.4,5.4c-4.6,7.3-9,15-13.2,23c-4.2,8-8.2,16.2-11.9,24.6
		c-7.5,16.9-14.3,34.4-20.5,52.4c-6.2,18-11.8,36.3-16.9,54.9c-5.1,18.6-9.7,37.4-13.8,56.4c-2.1,9.5-4,19-5.8,28.6
		c-0.9,4.8-1.8,9.5-2.6,14.3l-1.2,7.1l-1.1,7l-0.1,0.7c-1.8,11.2-12.1,18.8-23,17c-9.9-1.7-17-10.6-16.8-20.6l0.1-7.9l0.2-7.7
		c0.2-5.1,0.4-10.2,0.6-15.2c0.5-10.1,1.1-20.3,1.9-30.4c1.5-20.2,3.5-40.5,6.1-60.8c2.6-20.3,5.7-40.5,9.7-60.9
		c3.9-20.3,8.6-40.6,14.5-61c2.9-10.2,6.2-20.4,9.8-30.5c3.6-10.2,7.6-20.4,12.1-30.5l1.7-3.8l1.9-3.8c1.3-2.6,2.6-5.2,4-7.6
		c1.4-2.5,2.7-5,4.1-7.5l4.3-7.3c5.8-9.6,12-18.8,18.4-27.7c12.9-17.7,26.6-34.1,40.9-49.6c14.2-15.5,29-30.1,43.9-44.3
		c29.9-28.1,60.6-54.1,91.2-79.4c30.6-25.2,61.1-49.7,90.4-74.3c7.3-6.1,14.6-12.3,21.7-18.5c7.1-6.2,14.2-12.3,21-18.6
		c6.9-6.2,13.6-12.4,20.1-18.7c6.5-6.3,12.8-12.6,18.8-18.9c6-6.3,11.8-12.7,17.1-19c5.3-6.3,10.2-12.6,14.5-18.8
		c4.3-6.2,8-12.2,10.9-17.8c0.7-1.4,1.5-2.8,2-4.1l0.9-2l0.2-0.5l0.3-0.7l0.6-1.4l2.4-5.7l2.2-5.7c2.9-7.6,5.4-15.2,7.6-22.6
		c2.1-7.5,3.9-14.9,5.3-22.3c2.8-14.8,4.1-29.2,4.1-43.8c-0.1-14.6-1.5-29.5-4.1-45.5c-2.5-16-6.3-33.1-10.5-52
		c-4.2-18.8-8.9-39.3-12.8-61.7c-3.9-22.3-7-46.6-7.9-71.9c-0.9-25.3,0.4-51.5,4.1-77.3c1.8-12.9,4.2-25.7,7.1-38.2l2.3-9.4
		c0.8-3.1,1.6-6.2,2.5-9.3c0.8-3.1,1.8-6.2,2.7-9.3l1.4-4.7l1.5-4.6c2-6.1,4.1-12.1,6.3-18.1l3.4-8.8c1.1-3,2.3-5.8,3.5-8.7
		c4.8-11.5,9.9-22.8,15.3-33.7c5.4-10.9,11-21.5,16.9-31.9c5.9-10.3,11.9-20.4,18.2-30.2c24.9-39.3,52.4-74.9,81-108.2
		c28.6-33.3,58.6-64.3,89-93.7c15.2-14.7,30.5-29,45.5-42.7l21.6-19.9c3.3-3.1,6.6-6.1,9-8.6l0.9-0.9c0.3-0.3,0.5-0.5,0.7-0.7
		c0.2-0.2,0.5-0.5,0.6-0.7l0.3-0.4c0-0.1,0.1-0.2,0.1-0.2l-0.1,0l-0.1,0l-0.1,0c0,0-0.2,0.1-0.3,0.2c-0.4,0.3-0.8,0.6-1.2,1
		c-1,0.9-1.9,1.9-2.9,2.8c49.6-54.1,132.6-56.8,185.3-6C1957,876.9,1959.5,962,1909.9,1016.2z"/>
	<path class="st1" d="M939.4,2509.4c-2.2,0-4.4-0.2-6.6-0.6c-19.5-3.3-33.9-20.8-33.5-40.8l0.2-8l0.2-7.7c0.2-5.2,0.4-10.5,0.6-15.6
		c0.5-10,1.1-20.4,1.9-30.9c1.6-21.2,3.7-41.9,6.2-61.8c2.8-22,6-42.3,9.9-62.1c4.3-22.4,9.2-42.9,14.9-62.7
		c3.1-10.8,6.5-21.4,10.1-31.7c4.1-11.5,8.2-22,12.7-32l2.1-4.7l2-4c0.3-0.6,0.6-1.3,1-1.9c1-2,2.1-4.2,3.3-6.3
		c0.4-0.8,0.8-1.5,1.2-2.3c1-1.8,2-3.6,3.1-5.5l4.5-7.7c5.9-9.6,12.2-19.1,19.3-29c12.4-17,26.2-33.9,42.4-51.5
		c13.1-14.3,27.8-29.1,44.9-45.3c31.5-29.6,64.3-57.2,92.2-80.3c12.2-10,24.4-20.1,36.3-29.7c18.7-15.3,36.3-29.7,53.9-44.4
		c5.9-5,13.7-11.5,21.4-18.2c7.5-6.5,14.3-12.5,20.7-18.3c6.9-6.2,13.5-12.3,19.7-18.3c6.8-6.5,12.7-12.5,18.2-18.2
		c6.3-6.7,11.7-12.6,16.3-18.1c5.1-6.1,9.6-11.9,13.4-17.4c3.9-5.5,7.1-10.7,9.5-15.4c0.2-0.4,0.4-0.8,0.6-1.2
		c0.3-0.5,0.6-1.3,0.8-1.5l0.3-0.7l1.1-2.5l2.9-6.9l2.1-5.4c2.7-7.2,5.1-14.3,7.1-21.1c2-6.9,3.6-13.8,4.9-20.5
		c2.6-13.4,3.8-26.4,3.7-40c-0.1-12.9-1.3-26.8-3.8-42.5c-2.5-15.8-6.3-33-10.3-50.8l-1.2-5.3c-3.8-17.1-8.2-36.5-11.8-57.2
		c-4.6-26.5-7.3-50.9-8.1-74.6c-1-27,0.4-54.3,4.2-80.9c1.9-13.1,4.4-26.6,7.5-39.9l0.1-0.2l2.3-9.5c0.6-2.3,1.2-4.6,1.8-6.9
		l0.7-2.6c0.7-2.8,1.5-5.4,2.3-7.9l2.2-7.2l1.5-4.6c2.1-6.5,4.5-13,6.5-18.7l0.1-0.4l3.4-8.8c0.8-2.2,1.7-4.3,2.6-6.4
		c0.4-0.9,0.7-1.8,1.1-2.7l0.1-0.2c5.1-12.3,10.4-24,15.8-34.9c5.4-10.9,11.2-21.9,17.4-32.8c5.9-10.3,12.1-20.8,18.7-31.1
		c23.3-36.6,50.3-72.8,82.8-110.6c26.7-31,56.2-62.1,90.3-95.1c13.5-13.1,28.1-26.8,45.9-43.1l21.6-19.8c2-1.9,4.3-4,6.2-5.9
		l-0.4-0.3c27.7-30.3,65.3-47.6,105.8-48.9c40.4-1.3,78.8,13.6,108.1,41.9c29.3,28.2,46.1,66.4,47.3,107.6
		c1.2,41.1-13.3,80.3-40.8,110.4l-0.3,0.3c-1.9,2-3.9,4-5.9,6l-0.2,0.2c-1.4,1.3-2.7,2.5-4.1,3.8l-5.3,4.6l-4,3.3l-6.4,5.1
		c-5.2,3.9-9.4,7-14.1,10.4l-0.1,0.1l-23.9,17c-17.3,12.3-31.3,22.6-44,32.1c-30.5,23-56.8,44.6-80.5,66.1
		c-26.3,23.8-49.1,47.5-67.9,70.2c-20.4,24.6-36.2,48.6-47.2,71.4l-1,2.2l-0.9,2.1c-0.2,0.5-0.5,1.1-0.7,1.6
		c-0.4,0.8-0.8,1.7-1.1,2.5l-0.1,0.1c-0.3,0.7-0.6,1.5-1,2.2c-0.4,0.8-0.7,1.6-1,2.4l-1.9,4.6c-2.3,6-4.4,12-6.1,17.8
		c-3.6,12.2-6.1,24.4-7.5,37.3c-1.4,13-1.8,27.3-1.2,43.9c0.6,16,2.2,34.1,3.8,53.2l0.2,1.8c1.6,19,3.7,42.6,4.2,67.3
		c0.6,27-0.8,52.7-4.1,76.4c-3.6,26-9.7,51.8-18.3,76.6c-4.1,11.9-8.8,23.9-14,35.6c-4.9,11-10.5,22.1-16.5,33.2l-0.1,0.2l-4.5,8
		l-4.4,7.6l-4.9,8.3c-1.8,3-3.5,5.7-5.2,8.3l-0.8,1.2c-7.2,10.9-15.2,21.5-24.6,32.4c-14.4,16.8-30.5,32.7-50.7,50.2
		c-7.9,6.8-16.2,13.7-25.4,21c-8,6.4-16.5,12.9-25.2,19.4c-7.8,5.8-16,11.8-25.1,18.3c-9.1,6.5-18.1,12.8-24.9,17.4
		c-20.1,13.8-40.2,27.3-59.7,40.4c-12.4,8.3-25.3,17-37.8,25.4c-27.9,18.9-60.6,41.5-91.3,65.4c-15.8,12.3-29.3,23.6-41.2,34.4
		c-13.8,12.5-25.7,24.3-36.1,36.2c-5.5,6.3-10.6,12.6-15.1,18.6l-3.6,4.9c-0.6,0.9-1.2,1.8-1.8,2.7c-0.5,0.7-1,1.5-1.5,2.2l-0.1,0.2
		c-0.5,0.7-1.1,1.7-1.8,2.7c-0.4,0.6-0.7,1.2-1.1,1.8l-3.3,5.3c-4.1,6.5-8.1,13.6-12.3,21.6c-3.9,7.5-7.8,15.4-11.4,23.5
		c-6.9,15.5-13.6,32.5-19.9,50.7c-5.7,16.7-11.3,34.7-16.5,53.7c-4.8,17.7-9.4,36.3-13.5,55.4c-2.1,9.5-4,18.9-5.7,28
		c-0.9,4.7-1.8,9.4-2.6,14l-1.2,6.9l-1.2,7.6c-1.7,10.8-7.6,20.3-16.4,26.6C955.6,2506.8,947.6,2509.4,939.4,2509.4z M939.5,2461.1
		l-0.1,7.7c0,0.1,0,0.2,0,0.2c0,0,0-0.1,0-0.1l1.3-7.8l1.2-7.1c0.9-4.9,1.8-9.8,2.7-14.7c1.8-9.4,3.8-19.2,5.9-29.1
		c4.3-19.8,9-39.1,14-57.5c5.4-19.8,11.2-38.7,17.2-56.2c6.7-19.3,13.8-37.5,21.2-54c3.9-8.8,8.1-17.5,12.4-25.7
		c4.7-9,9.3-17,14-24.4l3.5-5.5c0.3-0.5,0.6-1,0.9-1.4c0.8-1.3,1.8-2.8,2.9-4.4c0.4-0.6,0.8-1.2,1.2-1.7c0.8-1.2,1.6-2.4,2.5-3.6
		l0.1-0.1l3.9-5.4c5.2-6.9,11-14.1,17.2-21.2c11.5-13.1,24.4-26,39.4-39.5c12.7-11.4,26.9-23.3,43.4-36.2c31.7-24.7,65-47.7,93.5-67
		c12.6-8.5,25.5-17.2,38-25.5c19.4-13,39.4-26.4,59.3-40.1c6.7-4.6,15.5-10.7,24.4-17.1c8.8-6.3,16.8-12.1,24.4-17.8
		c8.4-6.3,16.6-12.5,24.3-18.7c8.8-6.9,16.6-13.4,24-19.9c18.6-16.2,33.4-30.8,46.6-46.1c8.2-9.6,15.2-18.8,21.5-28.3l0.7-1.1
		c1.5-2.3,2.9-4.5,4.2-6.6l9.2-15.7l4.1-7.3c5.5-10.2,10.6-20.4,15.1-30.4c4.7-10.6,9-21.5,12.7-32.3c7.7-22.4,13.3-45.6,16.5-69.1
		c3-21.7,4.3-45.2,3.7-70.1c-0.5-23.4-2.4-45.3-4.1-64.7l-0.2-1.8c-1.7-19.7-3.3-38.2-3.9-55.2c-0.7-18.5-0.2-34.7,1.4-49.6
		c1.7-15.3,4.6-29.8,8.9-44.4c2.1-6.9,4.5-14,7.3-21.1l0.1-0.3l2-4.9c0.5-1.2,0.9-2.2,1.4-3.3c0.3-0.6,0.5-1.2,0.8-1.8
		c0.6-1.4,1.2-2.7,1.7-3.8c0.2-0.4,0.4-0.9,0.6-1.3l1.3-2.9l1.1-2.3c12.3-25.6,30-52.4,52.4-79.5c20-24.2,44.2-49.2,71.9-74.4
		c24.6-22.3,51.8-44.7,83.3-68.4c13-9.8,27.3-20.2,44.9-32.8l23.8-17c4.4-3.2,8.4-6.1,13.1-9.7l5.7-4.5l4.7-3.9l2.7-2.4
		c1.1-1,2.2-2,3.4-3.1c1.6-1.6,3.2-3.2,4.7-4.7c42.1-46.1,40-118.8-4.9-162c-21.5-20.8-49.6-31.7-79.1-30.8
		c-26.6,0.8-51.5,11.2-71.1,29.3c0,0-0.1,0.1-0.1,0.1l-0.3,0.4c-0.1,0.2-0.2,0.3-0.3,0.5l-0.7,0.9c-0.6,0.7-1.1,1.3-1.4,1.6l0,0
		l-0.3,0.4c-0.3,0.3-0.6,0.7-1,1.1l-0.9,0.9c-2.8,2.8-6.3,6.1-9.6,9.2l-0.1,0.1l-21.6,19.9c-17.5,16.1-31.9,29.5-45.1,42.4
		c-33.2,32.1-61.9,62.3-87.7,92.4c-31.2,36.3-57.1,70.9-79.3,105.9c-6.2,9.8-12.1,19.7-17.7,29.4c-5.8,10.2-11.3,20.6-16.3,30.9
		c-5,10.1-9.9,21-14.7,32.4c-0.4,0.9-0.8,1.9-1.2,2.8c-0.8,1.9-1.5,3.6-2.2,5.4l-3.4,8.7c-2,5.6-4.1,11.4-6,17.2l-1.5,4.5l-2,6.6
		c-0.7,2.3-1.3,4.4-1.8,6.4l-0.8,2.9c-0.6,2-1.1,4.1-1.6,6.1l-2.2,9.2c-2.8,12.2-5.1,24.4-6.8,36.4c-3.5,24.3-4.8,49.1-3.9,73.7
		c0.8,21.8,3.3,44.4,7.6,69.2c3.5,19.8,7.5,37.9,11.4,55.4l1.2,5.4c4.1,18.4,8,36.3,10.7,53.2c2.8,17.7,4.3,33.6,4.3,48.6
		c0.1,16.1-1.4,31.7-4.4,47.7c-1.5,7.9-3.4,16-5.7,24l0,0.1c-2.3,7.8-5,15.9-8.1,24.1l-0.1,0.2l-2.4,6.1l-3.8,9.1l-0.8,1.7
		c-0.7,1.6-1.4,2.9-2,4.1c-0.2,0.3-0.3,0.6-0.5,1l-0.1,0.2c-3.3,6.3-7.4,13.1-12.3,20.1c-4.5,6.4-9.7,13.2-15.6,20.2
		c-5.2,6.1-11,12.6-17.9,19.9c-5.9,6.2-12.3,12.6-19.5,19.5c-6.5,6.2-13.4,12.7-20.6,19.1c-6.6,6-13.6,12.2-21.3,18.8
		c-7.9,6.9-15.9,13.6-21.9,18.6c-17.8,14.9-36.4,30.1-54.4,44.8c-11.8,9.7-24.1,19.6-36.1,29.6c-28.8,23.8-59.7,49.8-90.2,78.5
		c-16.3,15.4-30.4,29.6-42.9,43.2c-15.1,16.5-28,32.1-39.4,47.9c-6.4,8.9-12.2,17.5-17.4,26.2l-4.2,7.1c-0.8,1.4-1.7,3-2.5,4.6
		c-0.5,0.8-0.9,1.7-1.4,2.5l-0.1,0.1c-0.8,1.4-1.6,3.1-2.5,4.9c-0.3,0.7-0.7,1.3-1,2l-1.7,3.4l-1.5,3.4c-4,9-7.8,18.5-11.5,29
		c-3.4,9.5-6.5,19.4-9.4,29.4c-5.4,18.6-10,38-14.1,59.3c-3.7,19-6.8,38.5-9.5,59.6c-2.4,19.2-4.5,39.3-6,59.7
		c-0.7,10.1-1.4,20.2-1.8,29.9c-0.2,5-0.4,10-0.6,14.9L939.5,2461.1z M1724.3,848.1l-0.2,0C1724.1,848.1,1724.2,848.1,1724.3,848.1z
		 M1727.7,840.5l2.3,6.4l-0.4,0.2c1.4-0.4,2.5-1,3.5-1.6L1727.7,840.5z M1735.6,843.8L1735.6,843.8
		C1735.5,843.9,1735.5,843.9,1735.6,843.8z M1703.7,830.7c0.3,2.2,1,4.3,2,6.4l2.7-1.4L1703.7,830.7z M1703.7,830.6l4.7,5.1l9.1-4.6
		l-12.2-11.4C1703.8,823.1,1703.2,826.9,1703.7,830.6z"/>
</g>
<g>
	<path class="st2" d="M1521.6,808.7l-0.3,1l-0.2,0.7l-0.4,1.2l-0.7,2.2l-1.4,4l-2.7,7.7c-1.8,5-3.6,9.9-5.5,14.8
		c-3.7,9.7-7.4,19.3-11.3,28.7c-7.6,18.9-15.6,37.5-23.9,56c-16.6,36.9-34.5,73.2-54,109c-9.8,17.9-19.9,35.6-30.6,53.2
		c-10.6,17.6-21.8,35-33.5,52.2c-23.4,34.4-49,68.1-78.1,100.2c-14.5,16.1-30,31.7-46.5,46.7c-2.1,1.9-4.2,3.7-6.3,5.6
		c-2.1,1.9-4.2,3.7-6.3,5.5l-6.4,5.5c-1.1,0.9-2.1,1.8-3.2,2.6l-3.1,2.5c-8.2,6.7-16.1,12.7-23.7,18.5l-43.6,32.8
		c-13.9,10.6-27.4,21-40.5,31.7c-26.1,21.3-50.6,43.3-73.1,66.7c-22.6,23.4-43.2,48.3-61.5,74.8c-18.3,26.5-34.4,54.6-47.8,84.2
		l-2.5,5.6l-2.6,6c-1.7,4-3.4,8-5,12c-3.3,8-6.5,16.1-9.6,24.2c-6.2,16.2-12,32.7-17.5,49.5c-5.5,16.8-10.7,33.9-15.8,51.5
		c-5.1,17.5-10.2,35.5-15.7,54c-5.5,18.5-11.4,37.5-18.5,56.8c-3.5,9.6-7.4,19.3-11.6,29c-4.2,9.7-8.8,19.3-13.8,28.7
		c-10,18.9-21.6,37.1-34.6,53.8c-12.9,16.8-27.1,32.1-41.8,46c-1.8,1.8-3.7,3.5-5.6,5.2c-1.9,1.7-3.7,3.4-5.6,5.1
		c-1.9,1.7-3.8,3.3-5.7,5l-2.9,2.4l-1.4,1.2l-1.2,1c-6.1,5-12.1,10.3-17.8,16c-11.6,11.3-22.4,23.9-32.5,37.4
		c-20.3,27-37.5,57.6-52.1,89.8c-7.3,16.1-13.9,32.7-19.9,49.6c-3,8.4-5.8,17-8.4,25.5c-1.3,4.3-2.5,8.6-3.7,12.9l-1.7,6.4l-1.5,6.1
		l-0.3,1.1c-2.8,11-13.7,17.6-24.4,14.8c-9.7-2.6-15.9-12-14.9-22l0.4-3.9l0.4-3.7c0.3-2.4,0.6-4.9,0.9-7.3
		c0.6-4.8,1.3-9.6,2.1-14.4c1.5-9.6,3.2-19.1,5.1-28.5c3.8-18.9,8.4-37.8,13.9-56.4c11-37.3,25.2-74.2,44.6-109.6
		c9.7-17.7,20.7-34.9,33.2-51.4c6.3-8.2,13-16.3,20.1-24l2.3-2.6l2.1-2.4c1.4-1.6,2.8-3.1,4.1-4.7c1.4-1.6,2.7-3.2,4-4.8
		c1.3-1.6,2.7-3.2,3.9-4.8c10.4-12.9,19.6-26.2,27.4-39.9c7.9-13.7,14.4-27.9,19.8-42.7c5.4-14.8,9.7-30.2,13.3-46.5
		c3.6-16.3,6.6-33.3,9.4-51c2.8-17.7,5.4-36.1,8.3-54.8c2.9-18.7,6-37.8,9.6-57c3.6-19.2,7.6-38.5,12.1-57.8
		c2.3-9.6,4.7-19.3,7.2-28.9c1.3-4.8,2.6-9.6,3.9-14.4l2-7.2l2.2-7.5c11.9-40.1,27.7-79.2,46.7-116.5c19-37.3,41.1-72.9,65.4-106.2
		c24.3-33.4,50.8-64.5,78-93.7c13.6-14.6,27.4-28.7,41-42.3l39.6-39.2c6.2-6.2,12.2-12.3,17.5-18l2-2.1c0.6-0.7,1.3-1.4,1.9-2.1
		l3.5-4c1.2-1.3,2.3-2.7,3.5-4.1l3.5-4.1c9.2-11.3,18.1-23.2,26.7-35.8c17.1-25.3,32.8-53,47.2-82.1c7.2-14.5,14.1-29.4,20.6-44.6
		c6.6-15.2,12.8-30.6,18.8-46.3c11.9-31.3,22.6-63.4,32.2-95.9c4.8-16.2,9.3-32.5,13.4-48.8c2.1-8.1,4-16.2,5.9-24.2
		c0.9-4,1.8-8,2.6-11.8l1.2-5.7l0.5-2.6l0.2-1.2l0.1-0.5l0-0.1c0-0.1,0,0-0.1,0.1c20.5-76.1,97.2-120.9,171.4-100
		C1498.6,654,1542.1,732.6,1521.6,808.7z"/>
	<path class="st1" d="M548.6,2333.7c-3.4,0-6.8-0.4-10.2-1.3c-19.3-5.1-31.7-23.3-29.7-43.4l0.8-7.8c0.3-2.6,0.6-5.2,0.9-7.7
		c0.6-4.8,1.3-9.7,2.1-14.9c1.5-9.8,3.3-19.7,5.3-29.4c4-19.8,8.8-39.4,14.3-58.1c12.4-42.2,27.5-79.4,46.2-113.6
		c10.6-19.4,22.4-37.5,34.9-53.9c6.8-8.8,13.9-17.4,21.2-25.3l4.4-4.9c1.2-1.3,2.4-2.7,3.6-4.2l0.1-0.2c1.5-1.7,2.6-3,3.7-4.4
		c0.5-0.6,0.9-1.1,1.4-1.7c0.8-0.9,1.6-1.9,2.3-2.8l0.2-0.2c9.9-12.2,18.5-24.8,25.7-37.3c7.2-12.6,13.2-25.5,18.4-39.6
		c4.8-13.1,8.9-27.5,12.6-43.9c3.1-13.8,5.9-29.1,9.1-49.8c1.6-10.1,3.1-20.2,4.7-30.8c1.2-7.9,2.4-15.8,3.6-23.9
		c3.4-21.9,6.4-40.2,9.7-57.6c3.7-19.9,7.8-39.7,12.3-58.8c2.7-11.3,5-20.6,7.3-29.4c1.3-4.8,2.6-9.7,3.9-14.6l2.1-7.5l2.2-7.5
		c12.2-40.9,28.4-81.3,48-119.9c18.8-37.1,41.4-73.7,67.1-108.9c23.1-31.7,49.1-62.9,79.5-95.6c12.3-13.2,25.9-27.2,41.5-42.8
		l39.6-39.3c7-7,12.4-12.6,16.9-17.4l2.4-2.6c0.3-0.3,0.6-0.6,0.8-0.9l0.2-0.2l3.7-4.2c0.7-0.7,1.4-1.6,2.2-2.6l4.2-5
		c9.1-11.1,17.6-22.6,25.5-34.3c15.9-23.4,31.3-50.3,45.9-79.7c7-14.2,13.8-28.9,20.2-43.7c6.2-14.3,12.4-29.5,18.4-45.5
		c11.5-30.2,22.1-61.9,31.7-94.4c4.8-16.3,9.2-32.4,13.2-48.1c2.2-8.7,4.1-16.5,5.8-23.8c1-4.3,1.8-8,2.5-11.5l1.9-9.6l13.8,2.5
		l-13.5-4c11.5-42.6,38.6-77.9,76.4-99.3c36.7-20.9,79.3-26.1,119.8-14.7c84.6,23.8,134.4,113.6,111.1,200.1l-0.8,2.7l-1.2,3.6
		l-1.5,4.2l-2.7,7.7c-1.7,4.8-3.6,9.7-5.6,15.2c-3.5,9.2-7.2,18.7-11.4,29.1c-7.5,18.6-15.7,37.7-24.2,56.7
		c-17.1,38.1-35.5,75.2-54.7,110.4c-10.4,19.1-20.6,36.8-31,54c-10.9,18-22.3,35.9-34,53.1c-26,38.3-52.1,71.8-79.8,102.4
		c-15,16.7-31.1,32.8-47.8,48.1c-1.5,1.4-3,2.7-4.5,4.1l-3,2.6c-1.8,1.6-3.7,3.3-5.7,4.9l-6.4,5.5c-0.9,0.8-1.8,1.5-2.7,2.2
		l-3.9,3.2c-9,7.3-17.3,13.7-24.2,18.9l-43.6,32.9c-15.1,11.5-28.2,21.7-39.9,31.2c-27.3,22.2-50.6,43.5-71.3,65.1
		c-22.3,23.1-42.3,47.4-59.5,72.3c-17.8,25.7-33.3,53-46,81.1l-2.4,5.4l-2.5,5.8c-1.7,3.9-3.3,7.8-4.9,11.7
		c-2.9,6.9-5.8,14.4-9.4,23.7c-5.9,15.6-11.7,32-17.1,48.6c-5,15.2-9.9,31.3-15.6,50.9c-2.1,7.3-4.3,14.8-6.4,22.2
		c-3,10.3-6.1,21-9.3,31.9c-4.7,15.9-11.1,36.8-18.9,58c-3.9,10.7-7.9,20.5-12,30.1c-4.5,10.4-9.4,20.5-14.5,30.1
		c-10.6,20.1-22.9,39.2-36.4,56.7c-12.9,16.7-27.6,32.9-43.8,48.2c-1.5,1.4-2.9,2.7-4.3,4l-1.5,1.4c-2,1.9-4.1,3.7-6,5.4
		c-1.7,1.5-3.8,3.4-5.9,5.2l-5.8,4.9c-5.5,4.5-11.1,9.5-16.5,14.7c-10.5,10.3-20.8,22.1-30.5,35.1c-18.3,24.4-35.1,53.4-49.9,86.1
		c-6.9,15.3-13.4,31.4-19.2,48c-2.9,8.1-5.6,16.4-8.1,24.7c-1.3,4.2-2.5,8.4-3.6,12.3l-1.7,6.2l-1.8,7c-2.7,10.6-9.3,19.5-18.7,25
		C562.5,2331.8,555.6,2333.7,548.6,2333.7z M549,2289.2l-0.4,3.9c0,0.1,0,0.2,0,0.2l1.9-7.4l1.8-6.5c1.2-4.3,2.5-8.8,3.9-13.3
		c2.7-8.8,5.6-17.7,8.6-26.3c6.2-17.6,13.1-34.8,20.5-51.2c16-35.4,34.3-66.9,54.3-93.6c11-14.6,22.6-28,34.5-39.7
		c6.2-6.1,12.7-11.9,19.1-17.1l2.3-1.9l2.9-2.5c1.7-1.4,3.3-2.9,5.3-4.6c1.7-1.5,3.5-3.1,5.3-4.8c0.6-0.6,1.2-1.1,1.7-1.6
		c1.3-1.2,2.4-2.2,3.5-3.3l0.2-0.2c14.7-13.9,28.1-28.6,39.8-43.7c12.2-15.7,23.2-32.8,32.7-50.9c4.6-8.7,9-17.9,13.2-27.4
		c3.8-8.8,7.5-17.9,11.2-27.9c7.4-20,13.3-39.3,18.1-55.6c3.2-10.7,6.2-21.3,9.2-31.5c2.2-7.5,4.3-15,6.5-22.4
		c5.8-20,10.9-36.5,16-52.1c5.6-17.2,11.6-34.2,17.8-50.4c3.7-9.6,6.8-17.5,9.8-24.7c1.6-4,3.3-8.1,5.1-12.2l2.7-6.3l2.5-5.6
		c13.7-30.3,30.4-59.7,49.6-87.4c18.5-26.6,39.8-52.6,63.6-77.2c21.8-22.7,46.3-45.1,74.9-68.3c12.1-9.8,25.5-20.3,41-32.1
		l43.6-32.8c6.6-5,14.6-11.2,23.1-18.1l3.8-3.1c0.7-0.6,1.4-1.1,2.1-1.7l6.6-5.6c1.6-1.3,3.2-2.8,4.9-4.3l3-2.7
		c1.4-1.2,2.8-2.4,4.1-3.7c15.7-14.4,30.9-29.6,45.1-45.4c26.4-29.2,51.4-61.3,76.4-98c11.3-16.6,22.3-33.9,32.9-51.3
		c10.1-16.7,20-33.9,30.1-52.4c18.7-34.2,36.6-70.4,53.3-107.6c8.3-18.6,16.3-37.2,23.6-55.3c4.1-10.2,7.7-19.4,11.1-28.3
		c2-5.3,3.8-10,5.4-14.5l5.3-15.4c17.4-65.4-20-133-83.4-150.9c-30.1-8.5-61.8-4.6-89.2,11c-28,15.9-48.2,42-57.1,73.5l-0.3,1.8
		l-0.6,2.9l-1.2,5.8c-0.8,3.7-1.7,7.7-2.7,12.1c-1.7,7.6-3.7,15.6-6,24.6c-4.1,16.1-8.7,32.8-13.6,49.5
		c-9.9,33.5-20.9,66.2-32.7,97.3c-6.3,16.5-12.7,32.3-19.1,47.1c-6.6,15.4-13.7,30.7-21.1,45.5c-15.4,31.1-31.7,59.5-48.6,84.4
		c-8.5,12.6-17.9,25.2-27.8,37.3l-0.2,0.2l-4.2,5c-0.9,1.1-2,2.3-3.1,3.6l-3.4,3.8c-0.5,0.6-1.1,1.3-1.8,2l-2.5,2.7
		c-4.9,5.2-10.6,11.1-18,18.5l-39.6,39.3c-15.2,15.2-28.5,28.9-40.5,41.7c-29.3,31.5-54.4,61.5-76.5,91.9
		c-24.5,33.5-45.9,68.3-63.8,103.5c-18.6,36.5-33.8,74.6-45.3,113.2l-2.1,7.3l-2,7c-1.3,4.7-2.6,9.5-3.8,14.1
		c-2.2,8.5-4.5,17.5-7.1,28.4c-4.3,18.4-8.3,37.6-11.9,56.9c-3.2,17-6.2,34.9-9.5,56.4c-1.2,8-2.4,15.9-3.6,23.7
		c-1.6,10.8-3.1,20.9-4.7,31.1c-3.4,21.5-6.4,37.6-9.6,52.3c-4,18.2-8.6,34.3-14.1,49c-5.9,16.2-12.9,31.2-21.3,45.7
		c-8.2,14.3-18,28.5-29.1,42.3c-1,1.3-2,2.5-3,3.6c-0.4,0.5-0.8,0.9-1.2,1.4c-1.4,1.8-3,3.5-4.4,5.2l-0.1,0.1
		c-1.4,1.6-2.8,3.2-4.3,4.9l-4.6,5.1c-6.5,7.1-12.9,14.7-18.9,22.6c-11.3,14.8-21.9,31.2-31.6,48.9c-17.3,31.6-31.4,66.2-42.9,105.6
		c-5.2,17.6-9.7,36.1-13.5,54.8c-1.8,9.2-3.5,18.5-5,27.7c-0.8,4.8-1.4,9.4-2,13.9c-0.3,2.3-0.6,4.6-0.9,7L549,2289.2z M1250.5,743
		l-2.4,9.3c10.2,2.6,20.7-3.2,23.8-13.1l-19.1-5.7l0,0l0.1,0l-0.1,0l-0.3,1.2l0.2,0l-0.2,0l-0.7,2.6l0.3,0.1l-0.3-0.1L1250.5,743
		l0.5,0.1L1250.5,743z"/>
</g>
<g>
	<path class="st2" d="M1316.6,845.9C1316.7,845.8,1316.7,845.8,1316.6,845.9l-0.1,0l-0.5,0.3l-1.1,0.6l-2.4,1.4l-5,3
		c-3.4,2-6.8,4.2-10.3,6.3c-6.9,4.3-13.9,8.8-20.9,13.3c-14,9.1-27.9,18.5-41.7,28.1c-27.6,19.2-54.7,39.3-80.9,60.2
		c-26.2,20.9-51.5,42.5-75.4,64.9c-12,11.2-23.6,22.6-34.8,34.2c-11.2,11.6-21.9,23.4-32.2,35.3c-10.2,11.9-19.8,24-28.8,36.2
		c-1.1,1.5-2.2,3-3.3,4.6c-1.1,1.5-2.2,3.1-3.3,4.6c-2.1,3.1-4.2,6-6.4,9.4c-4.4,6.6-8.9,13.8-13.5,21.4l-28.8,47.3
		c-10,16.3-20.3,32.7-31,49.2c-21.5,32.9-44.6,65.5-69.7,96.7c-25.1,31.3-52.2,61.3-81.4,89.2c-29.1,27.9-60.2,53.7-93,76.9
		l-6.2,4.3l-1.5,1.1l-1.5,1l-3,2c-4,2.7-8,5.4-12,8c-8,5.3-16.1,10.5-24.2,15.6c-16.2,10.2-32.6,20-49.1,29.4
		c-32.8,18.9-65.9,35.9-96.8,52.5c-15.5,8.3-30.3,16.6-44.4,25.3c-14.1,8.6-27.4,17.6-39.9,27.4c-12.5,9.8-24.4,20.4-35.5,32
		c-11.2,11.6-21.7,24.2-31.7,37.6c-1.3,1.7-2.5,3.4-3.7,5.1c-1.2,1.7-2.5,3.4-3.7,5.1c-1.2,1.7-2.4,3.4-3.6,5.2l-3.7,5.5
		c-5.7,8.6-11.6,16.8-17.8,24.8c-12.4,15.9-25.6,30.7-39.4,44.6c-27.6,27.7-57.4,51.8-88.4,73.4c-15.5,10.8-31.3,20.9-47.5,30.4
		c-8.1,4.8-16.2,9.4-24.5,13.8c-4.1,2.2-8.3,4.4-12.5,6.5l-6.3,3.2l-3.2,1.6l-3.4,1.6c-10,4.8-21.9,0.4-26.6-9.9
		c-4.2-9.3-1-20.3,7.1-25.8l0.8-0.5l5.2-3.5l5.3-3.7c3.6-2.5,7.1-5.1,10.6-7.7c7.1-5.3,14-10.7,20.9-16.2
		c13.7-11.1,27.1-22.6,39.9-34.6c25.6-24,49.3-49.7,69.7-77c10.2-13.7,19.5-27.7,27.7-42.1c4.1-7.2,7.9-14.5,11.4-21.8l1.5-3.1
		l1.7-3.3c1.1-2.2,2.2-4.4,3.4-6.6c1.1-2.2,2.3-4.4,3.5-6.6c1.2-2.2,2.3-4.4,3.6-6.6c9.6-17.5,20.4-34.7,32.5-51.3
		c12-16.6,25.4-32.5,39.7-47.3c14.3-14.8,29.5-28.5,44.8-41.1c15.3-12.6,30.8-24.3,45.9-35.4c15.1-11.1,30-21.7,44.5-32.3
		c14.5-10.5,28.6-21,42.4-31.7c13.8-10.6,27.2-21.5,40.4-32.6c6.6-5.6,13.1-11.2,19.5-16.8c3.2-2.9,6.4-5.7,9.6-8.6l2.4-2.2l1.2-1.1
		l1.1-1l4.5-4.2c23.9-22.4,46-46.6,66.3-72.3c20.4-25.7,39-52.9,56.1-81.5c17.1-28.5,32.7-58.3,47.4-89.2
		c7.4-15.5,14.5-31.3,21.7-47.5l22.1-50.3c3.9-8.7,7.9-17.7,12.4-27.2c2.2-4.7,4.8-9.7,7.2-14.6c1.2-2.4,2.5-4.8,3.7-7.3
		c1.3-2.4,2.5-4.8,3.8-7.2c10.2-19,21-37.4,32.3-55c11.3-17.7,23-34.8,35.1-51.3c12.1-16.6,24.5-32.7,37.2-48.4
		c12.7-15.7,25.6-31,38.8-45.9c13.2-15,26.6-29.6,40.2-43.9c27.2-28.7,55.2-56.2,84-82.9c14.4-13.3,29-26.4,43.9-39.4
		c7.5-6.5,15-12.9,22.7-19.3c3.9-3.2,7.7-6.4,11.7-9.7l6.1-4.9l3.2-2.5l1.7-1.3l0.9-0.7l0.5-0.4l0.7-0.5
		c64.1-43.8,150.6-26,193.2,39.6C1398.1,713.4,1380.7,802.1,1316.6,845.9z"/>
	<path class="st1" d="M40.1,2007.8c-4.6,0-9.1-0.8-13.6-2.4c-10.2-3.7-18.3-11.2-22.8-21.2c-8.3-18.2-2.3-39.5,14.1-50.6l5.8-3.9
		l5.2-3.6c3.4-2.4,6.8-4.9,10.2-7.4c6.6-4.9,13.5-10.2,20.3-15.7c13.3-10.7,26.4-22,38.8-33.6c26.1-24.4,48.7-49.4,67.3-74.4
		c10-13.4,18.8-26.9,26.3-40.1c3.9-6.8,7.5-13.7,10.7-20.5l0.1-0.3l3.2-6.4c1.1-2.2,2.1-4.2,3.2-6.3l0.4-0.7
		c1.3-2.6,2.5-4.8,3.7-6.9l0.8-1.6c0.9-1.7,1.9-3.5,2.8-5.2c10.4-18.9,21.8-36.8,33.8-53.3c12.5-17.2,26.5-33.8,41.5-49.4
		c13.7-14.2,29.4-28.5,46.5-42.6c16.9-13.9,33.9-26.6,46.8-36c8.6-6.3,17.3-12.6,25.6-18.6c6.4-4.6,12.7-9.2,18.9-13.7
		c16.2-11.8,29.5-21.8,41.9-31.4c13.4-10.3,26.8-21.1,39.8-32.1c6.2-5.3,12.7-10.8,19.2-16.5l2.7-2.4c2.2-2,4.5-4,6.7-6l4.6-4.1
		l4.5-4.1c22.7-21.3,44.3-44.8,64.3-70c19.2-24.2,37.5-50.9,54.6-79.3c15.8-26.2,31-54.9,46.5-87.5c6.6-13.9,13.4-28.9,21.4-47
		l22-50.3c4.8-10.9,8.7-19.4,12.7-27.7c1.8-3.8,3.8-7.7,5.7-11.5l1.7-3.4c0.9-1.8,1.8-3.5,2.7-5.2l2.1-4.1c1-1.9,2-3.8,3.1-5.8
		c10.3-19.1,21.4-38.1,33.1-56.3c11.3-17.6,23.3-35.2,35.8-52.3c12.1-16.6,24.8-33.1,37.8-49.2c12.6-15.6,25.8-31.3,39.3-46.6
		c12.7-14.4,26.4-29.4,40.7-44.4c26.8-28.2,55.3-56.4,84.9-83.8c14.8-13.7,29.8-27.1,44.4-39.8c8.3-7.2,15.8-13.6,23-19.6
		c4.2-3.5,8.1-6.7,11.9-9.8l14.5-11.4c35.3-24.1,77.7-32.8,119.3-24.4c42.1,8.4,78.3,33.2,102,69.7c23.4,36.1,31.8,79.5,23.4,122
		c-8.4,42.6-32.5,79.4-67.8,103.5l-7.6-10.3l6.3,11l-3.9,2.2l-4.9,2.9c-3.1,1.9-6.4,3.9-10,6.1c-6.3,3.9-13,8.2-20.6,13.1
		c-13.4,8.7-27.3,18-41.2,27.7c-27.6,19.2-54.5,39.2-79.8,59.4c-26.8,21.3-51.7,42.8-74.2,63.9c-11.6,10.9-23.1,22.1-34.1,33.5
		c-10.8,11.2-21.4,22.7-31.3,34.4c-9.6,11.2-19,23-27.9,35l-0.2,0.2c-0.7,0.9-1.4,1.9-2,2.8l-0.9,1.3c-0.4,0.6-0.9,1.2-1.3,1.9
		c-0.6,0.8-1.2,1.7-1.8,2.5c-0.7,1-1.4,2.1-2.1,3.1c-1.4,2-2.7,3.9-4,5.9c-3.9,5.9-8.1,12.6-13.2,20.9l-28.8,47.3
		c-11.5,18.7-21.7,35-31.4,49.7c-23.9,36.6-47.1,68.7-70.9,98.3c-26.5,33-54.4,63.6-83.1,91.1c-30.2,28.9-62.2,55.4-95.3,78.8
		l-12.5,8.6c-3,2-6,4.1-9.1,6.1l-3.1,2.1c-8.2,5.4-16.5,10.7-24.5,15.8c-16.4,10.3-33.1,20.3-49.8,29.9
		c-24.1,13.9-48.2,26.7-71.6,39.1c-8.9,4.7-17.3,9.2-25.7,13.7c-18.1,9.7-31.5,17.4-43.4,24.7c-14.3,8.8-26.8,17.3-38.1,26.2
		c-12.1,9.5-23,19.3-33.4,30.1c-10.3,10.7-20.5,22.7-30.1,35.7l-0.1,0.2c-0.8,1.1-1.6,2.2-2.4,3.2l-1.1,1.5c-1,1.4-2.1,2.9-3.4,4.8
		l-0.6,0.8c-1,1.4-1.9,2.7-2.9,4.1l-3.7,5.5c-5.8,8.7-12,17.4-18.6,25.9c-12.2,15.7-26,31.3-41,46.4c-26.7,26.8-56.6,51.6-91.2,75.7
		c-15.8,10.9-32.2,21.4-48.7,31.2c-8.5,5-16.9,9.8-25.1,14.2c-4.3,2.3-8.6,4.6-12.9,6.8l-0.1,0.1l-9.9,4.9l-3.4,1.6
		C51.7,2006.5,45.9,2007.8,40.1,2007.8z M238.4,1751.6c-3.6,7.6-7.6,15.3-12,23c-8.3,14.6-18.1,29.5-29,44.2
		c-20,26.9-44.2,53.7-72.1,79.7c-13.1,12.2-26.9,24.2-41,35.6c-7.2,5.8-14.5,11.4-21.5,16.7c-3.7,2.7-7.4,5.4-11,8l-5.7,4l-6,4.1
		c0,0-0.3,0.5-0.1,1c0,0,0,0,0,0l6.1-3l6.2-3.1c3.9-2,8-4.1,12-6.3c7.8-4.2,15.8-8.7,23.8-13.4c15.7-9.3,31.3-19.3,46.2-29.6
		c32.6-22.7,60.7-45.9,85.7-71.1c13.8-13.9,26.6-28.3,37.8-42.7c6-7.7,11.7-15.7,17-23.6l0.1-0.2l3.7-5.5c1-1.6,2.2-3.2,3.3-4.8
		l0.5-0.7c1.5-2.1,2.7-3.9,3.9-5.5l1-1.3c1-1.3,1.9-2.6,2.9-3.9c10.6-14.3,21.9-27.6,33.3-39.4c11.5-12,24.2-23.4,37.6-33.9
		c12.5-9.8,26.2-19.2,41.8-28.7c12.6-7.7,26.6-15.7,45.4-25.8c8.5-4.6,17.3-9.3,25.9-13.8c23-12.2,46.9-24.9,70.4-38.4
		c16.2-9.3,32.5-19,48.4-29c7.8-4.9,15.8-10.1,23.8-15.3l3-2c2.9-1.9,5.8-3.9,8.7-5.9l5.9-4l6.1-4.3c31.5-22.2,62-47.4,90.7-74.9
		c27.4-26.3,54.2-55.6,79.6-87.2c23-28.6,45.4-59.7,68.6-95.1c9.4-14.4,19.5-30.3,30.7-48.7l28.8-47.3c5.4-8.8,9.8-15.7,13.9-21.9
		c1.6-2.4,3.1-4.6,4.6-6.7c0.7-1,1.3-1.9,2-2.9l0.1-0.1c0.7-1,1.5-2.1,2.2-3.1c0.4-0.5,0.8-1.1,1.2-1.6l1-1.3
		c0.9-1.2,1.7-2.4,2.6-3.6c9.4-12.8,19.4-25.4,29.7-37.3c10.5-12.3,21.6-24.4,33-36.2c11.4-11.8,23.4-23.6,35.5-34.9
		c23.2-21.8,49-43.9,76.6-65.9c26-20.7,53.6-41.2,81.9-60.9c14.2-9.9,28.5-19.5,42.3-28.4c7.8-5.1,14.8-9.5,21.3-13.5
		c3.8-2.4,7.3-4.5,10.5-6.5l9.2-5.4c54.2-37.9,68.7-113.8,32.3-170c-17.8-27.4-44.9-45.9-76.3-52.2c-30.9-6.2-62.3,0.2-88.6,18.1
		l-1.5,1.1l-4.7,3.7l-6,4.9c-3.6,2.9-7.4,6.1-11.5,9.5c-7,5.8-14.3,12.1-22.4,19.1c-14.3,12.4-28.9,25.5-43.4,39
		c-28.9,26.8-56.9,54.4-83.1,82c-13.9,14.7-27.3,29.3-39.7,43.4c-13.2,14.9-26,30.1-38.3,45.3c-12.6,15.5-24.9,31.5-36.6,47.6
		c-12,16.4-23.6,33.4-34.4,50.3c-11.2,17.4-21.8,35.5-31.6,53.7l-0.1,0.2c-0.9,1.6-1.8,3.3-2.7,5.1l-2.1,4.1
		c-0.8,1.5-1.6,3.1-2.4,4.6l-1.7,3.3c-1.8,3.6-3.7,7.4-5.3,10.8c-3.8,8.1-7.6,16.3-12.2,26.7l-22,50.2
		c-8.2,18.5-15.1,33.8-21.9,48.1c-16.1,33.8-31.9,63.6-48.4,90.9c-18,29.9-37.3,58-57.5,83.6c-21.2,26.8-44.2,51.8-68.3,74.4
		l-7.1,6.6l-2.4,2.2c-2.3,2.1-4.6,4.2-7,6.3l-2.8,2.5c-6.7,5.9-13.4,11.6-19.8,17.1c-13.5,11.3-27.3,22.4-41.1,33.1
		c-12.7,9.8-26.3,20-42.8,32c-6.3,4.6-12.6,9.2-19,13.8c-8.3,6-16.8,12.2-25.4,18.4c-12.5,9.2-28.9,21.4-45,34.7
		c-16,13.1-30.5,26.4-43.1,39.5c-13.8,14.3-26.5,29.4-37.9,45.1c-11.1,15.2-21.5,31.7-31.2,49.2l-0.1,0.2c-0.9,1.5-1.7,3-2.5,4.5
		l-0.9,1.7c-1,1.9-2.1,3.8-3.3,6.2l-0.4,0.7c-1,1.9-2,3.8-2.8,5.6L238.4,1751.6z M1304.1,830.3c-8.1,6.4-9.8,18.2-4,26.8l7.8-5.3
		l-0.4-0.6l0.4,0.6l4.8-3.3l-0.2-0.3l0.2,0.3l2.3-1.5l-0.1-0.2l0.1,0.2l1-0.7L1304.1,830.3z"/>
</g>
<g>
	<path class="st2" d="M1779.6,136.8L1779.6,136.8c-353.6-222.9-821-117-1043.9,236.7l-74.5,118.1c-32.5,51.6-17,119.7,34.5,152.2
		l0,0c11.7,7.3,18.8,20,19.2,33.8c1.1,36.3,19.6,71.4,52.7,92.3c25.3,15.9,54.4,20.6,81.6,15.4c35.2-6.8,71.6,0.4,101.9,19.5
		l4.9,3.1c30.3,19.1,52.6,48.9,61.6,83.5c7,26.8,23.8,51.1,49,67c24.6,15.5,52.9,20.3,79.5,15.7c36.7-6.4,74.4,0.5,105.9,20.3
		l4.4,2.8c31.5,19.8,53.9,51,64,86.8c7.3,26,23.9,49.4,48.5,64.9c25.8,16.2,55.6,20.8,83.2,15c33.1-6.9,67.6-0.8,96.2,17.3l0,0
		c28.6,18,49,46.5,57,79.3c6.7,27.4,23.7,52.4,49.4,68.6c35.9,22.6,79.7,22.5,114.5,3.5c6.4-3.5,14.2-3.2,20.3,0.7l0,0
		c51.6,32.5,119.7,17,152.2-34.5l74.5-118.1C2239.1,827.1,2133.2,359.7,1779.6,136.8z"/>
	<path class="st1" d="M1848.2,1370.4c-24.3,0-48.2-6.8-69.3-20.1c-0.1,0-0.1,0-0.1,0c-42.3,23.1-93.9,21.6-134.7-4.2
		c-29.3-18.5-50-47.1-58.2-80.7c-6.9-28-24-51.9-48.3-67.2c-24.3-15.3-53.2-20.5-81.4-14.6c-33.9,7.1-68.7,0.8-98-17.7
		c-27.9-17.6-48.1-44.7-57.1-76.4c-8.9-31.6-28.6-58.4-55.4-75.3l-4.4-2.8c-26.8-16.9-59.4-23.1-91.8-17.5
		c-32.4,5.6-65.7-1-93.5-18.5c-28.7-18.1-49.2-46.1-57.7-78.9c-7.7-29.6-26.5-55-52.9-71.7l-4.9-3.1c-26.4-16.6-57.5-22.6-87.5-16.8
		c-33.3,6.4-67.4,0-96-18.1c-37.5-23.6-60.7-64.2-62-108.6c-0.2-7.2-3.9-13.7-9.9-17.5c-29.5-18.6-49.9-47.5-57.6-81.4
		s-1.7-68.9,16.9-98.3l74.5-118.1c55.9-88.7,127.6-163.8,212.9-223.3c82.4-57.4,174.1-97.8,272.5-120.1
		c98.4-22.3,198.5-25.4,297.7-9.2c102.6,16.8,199.7,53.7,288.4,109.6l0,0c88.7,55.9,163.8,127.6,223.3,212.9
		c57.4,82.4,97.8,174.1,120.1,272.5c22.3,98.4,25.4,198.5,9.2,297.7c-16.8,102.6-53.7,199.7-109.6,288.4l-74.5,118.1
		c-18.6,29.5-47.5,49.9-81.4,57.6C1867.6,1369.3,1857.8,1370.4,1848.2,1370.4z M1778.8,1310.2c7.5,0,14.9,2.1,21.5,6.2
		c20.4,12.9,44.6,17,68.2,11.7c23.5-5.3,43.6-19.5,56.5-39.9l74.5-118.1c216.7-343.7,113.3-799.7-230.4-1016.3
		C1602.4,48.7,1405,14.9,1213,58.4c-192,43.5-355.5,159.2-460.4,325.7l-74.5,118.1c-12.9,20.4-17,44.6-11.7,68.2
		c5.3,23.5,19.5,43.6,39.9,56.5c17.3,10.9,27.9,29.6,28.5,50.1c0.9,31,17.1,59.4,43.3,76c20,12.6,43.9,17.1,67.1,12.6
		c40-7.7,81.4,0.2,116.4,22.3l4.9,3.1c35,22.1,60,56,70.3,95.4c6,22.9,20.3,42.5,40.4,55.1c19.5,12.3,42.7,16.9,65.4,13
		c42.1-7.3,84.8,0.9,120,23.1l4.4,2.8c35.2,22.2,61,57.1,72.6,98.3c6.2,22.2,20.4,41.1,39.9,53.4c20.5,12.9,44.8,17.3,68.5,12.4
		c38.5-8,77.8-0.9,110.9,19.9c33.1,20.8,56.4,53.3,65.8,91.5c5.8,23.5,20.2,43.5,40.7,56.4c28.5,18,64.6,19.1,94.2,2.9
		C1765.6,1311.8,1772.2,1310.2,1778.8,1310.2z"/>
</g>
<g>
	<path class="st3" d="M712.4,561.4c-2.5,0-5.1-0.6-7.5-1.9c-7.8-4.1-10.8-13.8-6.7-21.6C701,532.7,766.5,410,894,292.1
		c62.7-58,157.5-125.3,227.9-144.9c8.5-2.4,17.3,2.6,19.7,11.1c2.4,8.5-2.6,17.3-11.1,19.7c-55.6,15.4-143.9,72-214.7,137.5
		c-123.3,114-188.5,236.1-189.2,237.3C723.7,558.3,718.1,561.4,712.4,561.4z"/>
</g>
<g>
	<path class="st3" d="M1260.6,133.8c-7.2,0-13.7-4.9-15.5-12.2c-2.1-8.6,3.2-17.2,11.7-19.3c4.7-1.2,116.7-28.2,201.4-17.6
		c8.8,1.1,15,9.1,13.9,17.9c-1.1,8.8-9.1,15-17.9,13.9c-78.8-9.9-188.7,16.6-189.8,16.9C1263.1,133.6,1261.8,133.8,1260.6,133.8z"/>
</g>
</svg>
